<svg width="18" height="20" viewBox="0 0 18 20" fill="none" xmlns="http://www.w3.org/2000/svg">
<g clip-path="url(#clip0_35_7)">
<path d="M10.1875 4.0625C10.1875 4.58203 9.76953 5 9.25 5C8.73047 5 8.3125 4.58203 8.3125 4.0625V0.9375C8.3125 0.419922 8.73047 0 9.25 0C9.76953 0 10.1875 0.419922 10.1875 0.9375V4.0625ZM6.50781 6.25H11.9922C13.2773 6.25 14.4883 7.08203 14.9336 8.32422L16.0391 11.4219C16.8242 11.7539 17.375 12.5312 17.375 13.4375V18.75C17.375 19.4414 16.8164 20 16.125 20H15.5C14.8086 20 14.25 19.4414 14.25 18.75V17.5H4.25V18.75C4.25 19.4414 3.69023 20 3 20H2.375C1.68477 20 1.125 19.4414 1.125 18.75V13.4375C1.125 12.5312 1.675 11.7539 2.45938 11.4219L3.56602 8.32422C4.01016 7.08203 5.1875 6.25 6.50781 6.25ZM6.50781 8.75C6.24609 8.75 6.00781 8.91797 5.92188 9.16406L5.17578 11.25H13.3242L12.5781 9.16406C12.457 8.91797 12.2539 8.75 11.9922 8.75H6.50781ZM4.25 15.3125C4.76953 15.3125 5.1875 14.8945 5.1875 14.375C5.1875 13.8555 4.76953 13.4375 4.25 13.4375C3.73242 13.4375 3.3125 13.8555 3.3125 14.375C3.3125 14.8945 3.73242 15.3125 4.25 15.3125ZM14.25 13.4375C13.7305 13.4375 13.3125 13.8555 13.3125 14.375C13.3125 14.8945 13.7305 15.3125 14.25 15.3125C14.7695 15.3125 15.1875 14.8945 15.1875 14.375C15.1875 13.8555 14.7695 13.4375 14.25 13.4375ZM0.77457 1.52461C1.14062 1.15859 1.73438 1.15859 2.10039 1.52461L3.97539 3.39961C4.34141 3.76562 4.34141 4.35938 3.97539 4.69141C3.60938 5.08984 3.01562 5.08984 2.64961 4.69141L0.77457 2.85039C0.408477 2.48438 0.408477 1.89062 0.77457 1.52461ZM16.3984 1.52461C16.7656 1.15859 17.3594 1.15859 17.6914 1.52461C18.0898 1.89062 18.0898 2.48438 17.6914 2.85039L15.8164 4.69141C15.4844 5.08984 14.8906 5.08984 14.5234 4.69141C14.1602 4.35938 14.1602 3.76562 14.5234 3.39961L16.3984 1.52461Z" fill="white"/>
</g>
<defs>
<clipPath id="clip0_35_7">
<rect width="17.5" height="20" fill="white" transform="translate(0.5)"/>
</clipPath>
</defs>
</svg>
