<svg width="91" height="25" viewBox="0 0 91 25" fill="none" xmlns="http://www.w3.org/2000/svg">
<path d="M37.6301 7.74975V12.603H41.9583V14.2887H37.6301V19.3004H35.9478V7.74975C35.9502 6.19809 36.5676 4.71067 37.6648 3.61348C38.762 2.51629 40.2494 1.89883 41.8011 1.89642H41.9594V3.581H41.8011C40.6957 3.58251 39.636 4.02212 38.8542 4.80352C38.0724 5.58492 37.6322 6.64438 37.6301 7.74975Z" fill="white"/>
<path d="M45.6078 1.89301H43.9243V19.3026H45.6078V1.89301Z" fill="white"/>
<path d="M59.5711 7.59143L51.8419 24.9999H49.9921L52.6153 19.1455L47.4863 7.59143H49.2894L53.5173 17.093L57.7453 7.59143H59.5711Z" fill="white"/>
<path d="M63.1107 7.59143H61.4272V19.3026H63.1107V7.59143Z" fill="white"/>
<path d="M76.762 13.447V19.3026H75.0797V13.447C75.0788 12.3406 74.6388 11.2797 73.8563 10.4975C73.0738 9.7152 72.0128 9.27548 70.9064 9.27488C68.6842 9.27488 66.7342 11.2248 66.7342 13.447V19.3026H65.0508V7.59143H66.7342V9.34777C67.548 8.51856 68.5902 7.95049 69.7281 7.71599C70.866 7.48148 72.0479 7.59117 73.1232 8.03106C74.1985 8.47095 75.1184 9.22112 75.7657 10.1859C76.4129 11.1507 76.7582 12.2864 76.7574 13.4482L76.762 13.447Z" fill="white"/>
<path d="M88.7531 7.59143V9.34777C87.9384 8.52232 86.8966 7.9578 85.7602 7.72596C84.6238 7.49413 83.4441 7.60546 82.3711 8.04579C81.2982 8.48613 80.3804 9.23559 79.7345 10.1989C79.0885 11.1622 78.7437 12.2958 78.7437 13.4556C78.7437 14.6154 79.0885 15.749 79.7345 16.7123C80.3804 17.6756 81.2982 18.425 82.3711 18.8654C83.4441 19.3057 84.6238 19.417 85.7602 19.1852C86.8966 18.9534 87.9384 18.3888 88.7531 17.5634V19.1455C88.7516 20.2515 88.3115 21.3118 87.5294 22.094C86.7473 22.8761 85.687 23.3161 84.5809 23.3176C83.4703 23.3127 82.4063 22.8703 81.6195 22.0864L81.5056 21.9725L80.3256 23.1513L80.4395 23.2652C80.9788 23.8181 81.624 24.2566 82.3365 24.5547C83.049 24.8527 83.8143 25.0041 84.5866 24.9999C86.138 24.9969 87.6249 24.379 88.7214 23.2816C89.818 22.1842 90.4347 20.6968 90.4365 19.1455V7.59143H88.7531ZM84.5809 17.6146C83.7557 17.6146 82.949 17.3699 82.2629 16.9114C81.5768 16.4529 81.042 15.8013 80.7263 15.0388C80.4105 14.2764 80.328 13.4375 80.489 12.6281C80.6501 11.8188 81.0476 11.0754 81.6312 10.4919C82.2148 9.90847 82.9583 9.5112 83.7677 9.35035C84.5771 9.18949 85.416 9.27228 86.1783 9.58823C86.9407 9.90419 87.5922 10.4391 88.0505 11.1254C88.5088 11.8116 88.7533 12.6184 88.7531 13.4436C88.7516 14.5496 88.3115 15.6098 87.5294 16.3917C86.7472 17.1736 85.6869 17.6134 84.5809 17.6146Z" fill="white"/>
<path d="M63.1107 1.89301H61.4272V4.48879H63.1107V1.89301Z" fill="white"/>
<path d="M18.2992 21.1364L18.3561 21.2367H16.8116L16.7911 21.2036C16.2685 20.3499 15.6865 19.5339 15.0496 18.7616L11.9743 15.0359C10.2966 12.8038 9.53724 10.014 9.85235 7.23948C9.92812 6.53614 9.78431 5.82659 9.44068 5.20825C9.09704 4.58992 8.57043 4.09311 7.93314 3.78604L2.6721 1.26884L0 0H11.5517C12.0928 0.000482682 12.6321 0.0604515 13.16 0.178824C14.1384 0.404301 15.0587 0.832383 15.8615 1.43545C16.6643 2.03853 17.3318 2.80318 17.8208 3.68011L18.6489 5.14373H17.118L16.6624 4.33617C16.2654 3.62136 15.7228 2.99785 15.0697 2.50598C14.4165 2.0141 13.6674 1.66481 12.8707 1.4807C12.438 1.3843 11.9962 1.33541 11.5529 1.33491H5.90116L8.50947 2.57984C9.39769 3.0052 10.1317 3.6962 10.6098 4.55716C11.0879 5.41812 11.2866 6.40645 11.1782 7.38528C11.0903 8.18085 11.101 8.98423 11.21 9.77718C11.4317 11.39 12.0587 12.9203 13.0324 14.225L16.0747 17.9153C16.908 18.9227 17.6523 20.0004 18.2992 21.1364Z" fill="white"/>
<path d="M18.2456 13.0586H20.5919C22.7497 13.0568 24.8188 12.2 26.3461 10.6758L30.1675 6.85448H18.2456C17.8332 6.84658 17.4234 6.92098 17.0401 7.07332C16.6568 7.22567 16.3078 7.4529 16.0134 7.74173C15.7189 8.03057 15.4851 8.37521 15.3254 8.7555C15.1657 9.13579 15.0835 9.5441 15.0835 9.95655C15.0835 10.369 15.1657 10.7773 15.3254 11.1576C15.4851 11.5379 15.7189 11.8825 16.0134 12.1714C16.3078 12.4602 16.6568 12.6874 17.0401 12.8398C17.4234 12.9921 17.8332 13.0665 18.2456 13.0586ZM24.8689 10.1849C24.4081 10.5952 23.8868 10.9317 23.3232 11.1827C22.4609 11.5583 21.5303 11.7522 20.5896 11.7522H18.2433C17.8832 11.7523 17.5313 11.6443 17.2332 11.4423C16.9351 11.2402 16.7045 10.9534 16.5712 10.6189C16.4378 10.2844 16.4079 9.91758 16.4853 9.56589C16.5627 9.21419 16.7438 8.89379 17.0052 8.64613C17.3593 8.32526 17.8225 8.15171 18.3003 8.16091H27.0227L25.9976 9.18601C25.9281 9.25549 25.8552 9.32384 25.7812 9.38876L24.8689 10.1849Z" fill="white"/>
<path d="M22.8823 17.6511H20.5542V21.2412H22.8823V17.6511Z" fill="#50D88A"/>
</svg>
