<svg id="Layer_1" data-name="Layer 1" xmlns="http://www.w3.org/2000/svg" viewBox="0 0 1080 1080"><defs><style>.cls-1{fill:none;}.cls-2{fill:#fff;}.cls-3{fill:#50d88a;}</style></defs><line class="cls-1" x1="270.21" y1="228.21" x2="269" y2="227"/><line class="cls-1" x1="288.6" y1="246.6" x2="283.14" y2="241.14"/><path class="cls-2" d="M579.26,704.36l.89,1.56H556l-.32-.5a331.71,331.71,0,0,0-27.22-38.18l-48-58.23a170.89,170.89,0,0,1-33.17-121.87,53.54,53.54,0,0,0-30-54L335,393.83,293.24,374H473.79a114.43,114.43,0,0,1,25.14,2.8c30.45,6.75,57,26.69,72.85,54.71l13,22.88H560.79l-7.16-12.62c-12.92-22.86-34.51-39.15-59.23-44.64a96.1,96.1,0,0,0-20.61-2.26H385.48l40.77,19.48A74.26,74.26,0,0,1,468,489.47a152.1,152.1,0,0,0,.49,37.31A150.55,150.55,0,0,0,497,596.3L544.54,654A352.86,352.86,0,0,1,579.26,704.36Z"/><path class="cls-2" d="M578.42,578.09H615.1A127.44,127.44,0,0,0,705,540.84l59.72-59.72H578.42a48.49,48.49,0,0,0,0,97ZM682,533.17a93.52,93.52,0,0,1-24.15,15.59,107.05,107.05,0,0,1-42.7,9H578.42a28.12,28.12,0,0,1-19.34-48.54,29.25,29.25,0,0,1,20.2-7.71H715.61l-16,16c-1.1,1.09-2.23,2.16-3.39,3.18Z"/><rect class="cls-3" x="614.52" y="649.88" width="36.39" height="56.12"/></svg>