<svg width="21" height="20" viewBox="0 0 21 20" fill="none" xmlns="http://www.w3.org/2000/svg">
<g clip-path="url(#clip0_35_9)">
<path d="M19.25 0C19.9414 0 20.5 0.559766 20.5 1.25C20.5 1.94023 19.9414 2.5 19.25 2.5V17.5C19.9414 17.5 20.5 18.0586 20.5 18.75C20.5 19.4414 19.9414 20 19.25 20H12.375V17.5H8.625V20H1.75C1.05977 20 0.5 19.4414 0.5 18.75C0.5 18.0586 1.05977 17.5 1.75 17.5V2.5C1.05977 2.5 0.5 1.94023 0.5 1.25C0.5 0.559766 1.05977 0 1.75 0H19.25ZM4.875 3.75C4.53125 3.75 4.25 4.03125 4.25 4.375V5.625C4.25 5.96875 4.53125 6.25 4.875 6.25H6.125C6.46875 6.25 6.75 5.96875 6.75 5.625V4.375C6.75 4.03125 6.46875 3.75 6.125 3.75H4.875ZM9.25 5.625C9.25 5.96875 9.53125 6.25 9.875 6.25H11.125C11.4688 6.25 11.75 5.96875 11.75 5.625V4.375C11.75 4.03125 11.4688 3.75 11.125 3.75H9.875C9.53125 3.75 9.25 4.03125 9.25 4.375V5.625ZM14.875 3.75C14.5312 3.75 14.25 4.03125 14.25 4.375V5.625C14.25 5.96875 14.5312 6.25 14.875 6.25H16.125C16.4688 6.25 16.75 5.96875 16.75 5.625V4.375C16.75 4.03125 16.4688 3.75 16.125 3.75H14.875ZM4.25 9.375C4.25 9.71875 4.53125 10 4.875 10H6.125C6.46875 10 6.75 9.71875 6.75 9.375V8.125C6.75 7.78125 6.46875 7.5 6.125 7.5H4.875C4.53125 7.5 4.25 7.78125 4.25 8.125V9.375ZM9.875 7.5C9.53125 7.5 9.25 7.78125 9.25 8.125V9.375C9.25 9.71875 9.53125 10 9.875 10H11.125C11.4688 10 11.75 9.71875 11.75 9.375V8.125C11.75 7.78125 11.4688 7.5 11.125 7.5H9.875ZM14.25 9.375C14.25 9.71875 14.5312 10 14.875 10H16.125C16.4688 10 16.75 9.71875 16.75 9.375V8.125C16.75 7.78125 16.4688 7.5 16.125 7.5H14.875C14.5312 7.5 14.25 7.78125 14.25 8.125V9.375ZM10.5 11.25C8.75 11.25 7.27734 12.4492 6.83203 14.0703C6.73828 14.5742 7.16797 15 7.6875 15H13.3125C13.832 15 14.2617 14.5742 14.1328 14.0703C13.7227 12.4492 12.25 11.25 10.5 11.25Z" fill="white"/>
</g>
<defs>
<clipPath id="clip0_35_9">
<rect width="20" height="20" fill="white" transform="translate(0.5)"/>
</clipPath>
</defs>
</svg>
