<svg width="23" height="20" viewBox="0 0 23 20" fill="none" xmlns="http://www.w3.org/2000/svg">
<g clip-path="url(#clip0_35_11)">
<path d="M18.8398 7.5C20.1758 7.5 22.5 8.63281 22.5 10C22.5 11.4062 20.1758 12.5 18.8398 12.5H14.2852L10.3594 19.3711C10.1367 19.7578 9.72266 20 9.27344 20H7.07812C6.66406 20 6.36328 19.6016 6.47656 19.2031L8.39453 12.5H4.375L2.6875 14.75C2.56953 14.9062 2.38438 15 2.1875 15H0.548047C0.245469 15 0 14.7539 0 14.418C0 14.4023 0.00710156 14.3516 0.0210859 14.3008L1.25 10L0.0210859 5.69922C0.00710156 5.64844 0 5.59766 0 5.54688C0 5.24609 0.245469 5 0.548047 5H2.1875C2.38438 5 2.56953 5.09375 2.6875 5.25L4.375 7.5H8.39453L6.47656 0.796875C6.36328 0.397266 6.66406 0 7.07812 0H9.27344C9.72266 0 10.1367 0.240352 10.3594 0.629688L14.2852 7.5H18.8398Z" fill="white"/>
</g>
<defs>
<clipPath id="clip0_35_11">
<rect width="22.5" height="20" fill="white"/>
</clipPath>
</defs>
</svg>
